<svg xmlns="http://www.w3.org/2000/svg" xmlns:xlink="http://www.w3.org/1999/xlink" viewBox="0 0 332.77 318.76"><defs><style>.cls-1{isolation:isolate;}.cls-2{fill:#084c94;}.cls-26,.cls-3{fill:#72b5e8;}.cls-4{fill:#3f92d1;}.cls-5{fill:#2672ab;}.cls-6{fill:#a8cff0;}.cls-7{fill:#f0f8ff;}.cls-18,.cls-29,.cls-8{fill:#fff;}.cls-8{mix-blend-mode:color-dodge;}.cls-9{fill:#03336e;}.cls-10,.cls-11,.cls-24{fill:#d1ebff;}.cls-11,.cls-26,.cls-29{opacity:0.5;}.cls-12{fill:#001a46;}.cls-13{fill:#9d9eb3;}.cls-13,.cls-21,.cls-24,.cls-30,.cls-31{mix-blend-mode:multiply;}.cls-14{fill:#eb4680;}.cls-15{fill:#0fbab8;}.cls-16{fill:#3ecfcd;}.cls-17{fill:#f76195;}.cls-19,.cls-23{fill:#92b4d1;}.cls-20{fill:#ffd70f;}.cls-21,.cls-23,.cls-30{opacity:0.2;}.cls-22{fill:#ffde17;}.cls-25{fill:#fc0;}.cls-27{fill:#d62d69;}.cls-28{fill:url(#linear-gradient);}.cls-30{fill:url(#radial-gradient);}.cls-31{fill:url(#radial-gradient-2);}</style><linearGradient id="linear-gradient" x1="2275.22" y1="-2299.13" x2="2299.82" y2="-2297.46" gradientTransform="matrix(0, 1, 1, 0, 2412.89, -2027.44)" gradientUnits="userSpaceOnUse"><stop offset="0" stop-color="#d6dae6"/><stop offset="0.01" stop-color="#d4d8e6"/><stop offset="0.28" stop-color="#b4b8e3"/><stop offset="0.4" stop-color="#9a9fc8"/><stop offset="0.53" stop-color="#838ab0"/><stop offset="0.65" stop-color="#757da1"/><stop offset="0.76" stop-color="#70789c"/><stop offset="0.85" stop-color="#777ea2"/><stop offset="0.99" stop-color="#898eb3"/><stop offset="1" stop-color="#8b90b5"/></linearGradient><radialGradient id="radial-gradient" cx="5535.34" cy="-8113.75" r="23.72" gradientTransform="matrix(-0.74, 0.68, 0.26, 0.28, 6315.77, -1183.06)" gradientUnits="userSpaceOnUse"><stop offset="0" stop-color="#daebf2"/><stop offset="1" stop-color="#fff"/></radialGradient><radialGradient id="radial-gradient-2" cx="5535.55" cy="-8109.38" r="26.74" xlink:href="#radial-gradient"/></defs><g class="cls-1"><g id="Layer_2" data-name="Layer 2"><g id="Layer_1-2" data-name="Layer 1"><path class="cls-2" d="M137.83,100.25a.75.75,0,0,1-.75-.73L137,96.86a1.1,1.1,0,0,1,0-.18L154.48,13a5,5,0,0,1,9.69-.34l17.17,61.89a.74.74,0,0,1-.52.92.76.76,0,0,1-.93-.52L162.73,13.11a3.5,3.5,0,0,0-6.78.24L138.5,96.9l.08,2.57a.76.76,0,0,1-.73.78Z"/><g class="cls-1"><polygon class="cls-3" points="139.32 2.88 144.27 0 152.53 3.42 147.57 6.3 139.32 2.88"/><path class="cls-4" d="M147.57,6.31l5-2.89a25.33,25.33,0,0,0,7.74,7.36,11,11,0,0,0,7.12,1.71c3.12-.51,6.74.36,10.46,2.5l-5,2.88c-3.71-2.14-7.33-3-10.46-2.5a11,11,0,0,1-7.12-1.71A25.41,25.41,0,0,1,147.57,6.31Z"/><polygon class="cls-3" points="172.89 17.87 177.85 14.99 217.79 38.05 212.83 40.93 172.89 17.87"/><path class="cls-5" d="M212.83,40.93l0,10.36L172.87,24.56a11.2,11.2,0,0,0-7.3-1.74c-3.11.51-6.7-.41-10.27-2.47A36.6,36.6,0,0,1,144.12,9.71l-4.8-6.83,8.25,3.43a25.41,25.41,0,0,0,7.74,7.35,11,11,0,0,0,7.12,1.71c3.13-.51,6.75.36,10.46,2.5Z"/></g><path class="cls-3" d="M130.09,94.23c0,12.2,12.94,22.1,28.92,22.1s28.92-9.9,28.92-22.1Z"/><path class="cls-6" d="M127.78,90.33h62.57V93c0,10.06-14,18.22-31.28,18.22S127.78,103.06,127.78,93c0-.08,0-.17,0-.25h0Z"/><ellipse class="cls-7" cx="159.07" cy="90.46" rx="31.29" ry="18.22"/><ellipse class="cls-4" cx="159.07" cy="90.54" rx="28.64" ry="16.68"/><path class="cls-2" d="M177.4,91a.49.49,0,0,1-.47-.34,4,4,0,0,0-1.13-1.29.5.5,0,0,1,.65-.77,4.79,4.79,0,0,1,1.42,1.74.49.49,0,0,1-.31.63A.45.45,0,0,1,177.4,91Zm-3.77-3.17a.53.53,0,0,1-.24-.06,19.14,19.14,0,0,0-1.76-.84.5.5,0,0,1-.27-.66.51.51,0,0,1,.66-.26c.64.27,1.27.57,1.84.88a.5.5,0,0,1,.21.68A.49.49,0,0,1,173.63,87.87ZM169,86a.32.32,0,0,1-.14,0c-.62-.18-1.26-.35-1.91-.49a.5.5,0,1,1,.22-1c.67.15,1.33.32,2,.51a.5.5,0,0,1,.34.62A.51.51,0,0,1,169,86Zm-4.89-1H164c-.63-.08-1.28-.15-2-.2a.5.5,0,0,1-.46-.54.53.53,0,0,1,.54-.46c.69.06,1.37.13,2,.21a.51.51,0,0,1,.43.56A.51.51,0,0,1,164.11,85Zm-5-.32h-.05a.5.5,0,0,1-.5-.5.5.5,0,0,1,.5-.5.53.53,0,0,1,.53.5A.48.48,0,0,1,159.12,84.66Z"/><path class="cls-3" d="M159.07,77.4c-14.8,0-27,6.53-28.48,14.91a9.48,9.48,0,0,1-.16-1.77c0-9.21,12.82-16.68,28.64-16.68s28.64,7.47,28.64,16.68a9.48,9.48,0,0,1-.17,1.77C186,83.93,173.86,77.4,159.07,77.4Z"/><path class="cls-8" d="M159.07,108.61c17.09,0,31-8,31.27-17.9,0,.11,0,.22,0,.33,0,10.06-14,18.22-31.28,18.22S127.78,101.1,127.78,91c0-.11,0-.22,0-.33C128.09,100.62,142,108.61,159.07,108.61Z"/><path class="cls-2" d="M138,100.27a.75.75,0,0,1-.07-1.49l.67-.06A1.65,1.65,0,0,0,140,97.48l.14-.54a.75.75,0,0,1,.91-.55.76.76,0,0,1,.54.92l-.14.54a3.16,3.16,0,0,1-2.76,2.36l-.67.06Z"/><path class="cls-6" d="M135.53,96a2.94,2.94,0,0,0-.13.93V101l4.44,2.57L140,105l1.13-.71V100.2a6.33,6.33,0,0,0-2.88-5,2.12,2.12,0,0,0-1.91-.27h0a1.14,1.14,0,0,0-.3.18l-1,.58Zm1.53.77.74.37,1.52,2.33.2,1.55a1.19,1.19,0,0,1-1.24-.12,3.82,3.82,0,0,1-1.75-3A1.17,1.17,0,0,1,137.06,96.72Z"/><path class="cls-3" d="M134.27,97.59v4.07L140,105v-4.08a6.36,6.36,0,0,0-2.88-5C135.56,95,134.27,95.76,134.27,97.59Zm1.14,1c0-1.11.78-1.55,1.74-1a3.85,3.85,0,0,1,1.75,3c0,1.1-.78,1.55-1.75,1A3.85,3.85,0,0,1,135.41,98.55Z"/><path class="cls-2" d="M137.83,100.25a.75.75,0,0,1-.75-.73L137,96.86a1.1,1.1,0,0,1,0-.18L154.48,13a4.88,4.88,0,0,1,3-3.57,5.16,5.16,0,0,1,4.74.46.75.75,0,0,1-.83,1.25,3.61,3.61,0,0,0-3.35-.32A3.35,3.35,0,0,0,156,13.35L138.5,96.9l.08,2.57a.76.76,0,0,1-.73.78Z"/><path class="cls-6" d="M178.46,72.37a2.93,2.93,0,0,0-.14.93v4.07l4.45,2.57L183,81.4l1.12-.7V76.62a6.36,6.36,0,0,0-2.88-5,2.11,2.11,0,0,0-1.91-.26h0a1.44,1.44,0,0,0-.31.19l-.95.57Zm1.52.76.74.38,1.52,2.32.2,1.56a1.21,1.21,0,0,1-1.24-.12,3.86,3.86,0,0,1-1.75-3A1.22,1.22,0,0,1,180,73.13Z"/><path class="cls-3" d="M177.2,74v4.08L183,81.4V77.33a6.35,6.35,0,0,0-2.88-5C178.49,71.44,177.2,72.18,177.2,74Zm1.13,1c0-1.11.78-1.56,1.75-1a3.86,3.86,0,0,1,1.74,3c0,1.11-.78,1.55-1.74,1A3.85,3.85,0,0,1,178.33,75Z"/><path class="cls-2" d="M179.2,75.88a3.67,3.67,0,0,1-2.58-1.07l-1-1a.75.75,0,0,1,1.06-1.06l1,1a2.15,2.15,0,0,0,2.22.51.75.75,0,0,1,1,.46.74.74,0,0,1-.46,1A3.53,3.53,0,0,1,179.2,75.88Z"/><polygon class="cls-2" points="223.11 32.47 225.41 31.09 238.75 54.19 236.45 55.56 223.11 32.47"/><polygon class="cls-9" points="223.11 32.47 236.45 55.56 223.03 63.2 209.69 40.11 223.11 32.47"/><polygon class="cls-5" points="213.79 41.22 222.01 36.55 232.34 54.44 224.13 59.12 213.79 41.22"/><polygon class="cls-2" points="213.79 41.22 214.54 40.79 224.87 58.69 224.13 59.12 213.79 41.22"/><path class="cls-2" d="M263,172.61a.75.75,0,0,1-.75-.72l-.09-2.66a1.1,1.1,0,0,1,0-.18l17.47-83.64a5,5,0,0,1,9.69-.35L306.54,147a.75.75,0,1,1-1.45.4L287.93,85.47a3.5,3.5,0,0,0-6.78.25L263.7,169.27l.08,2.57a.75.75,0,0,1-.73.77Z"/><path class="cls-5" d="M220.76,22.45h0a5.86,5.86,0,0,0-5.86,5.86V46.24c0,1.88,2.62,3.41,5.86,3.41s5.85-1.53,5.85-3.41v-.05h0V28.31A5.85,5.85,0,0,0,220.76,22.45Z"/><path class="cls-5" d="M243.36,189.79H198.15V193c0,7.27,10.12,13.16,22.61,13.16s22.6-5.89,22.6-13.16v-.18h0Z"/><ellipse class="cls-4" cx="220.76" cy="189.88" rx="22.61" ry="13.16"/><path class="cls-3" d="M220.76,203c-12.35,0-22.38-5.77-22.6-12.93,0,.08,0,.15,0,.23,0,7.27,10.12,13.17,22.61,13.17s22.6-5.9,22.6-13.17a1.77,1.77,0,0,0,0-.23C243.14,197.23,233.11,203,220.76,203Z"/><path class="cls-5" d="M228.21,176.46h-14.9s-7.45,11.62-7.45,11.66c0,4.79,6.67,8.67,14.9,8.67s14.89-3.88,14.89-8.67C235.65,188.08,228.21,176.46,228.21,176.46Z"/><path class="cls-4" d="M213.31,176.49c0,2.4,3.34,4.34,7.45,4.34s7.45-1.94,7.45-4.34-3.34-4.33-7.45-4.33S213.31,174.1,213.31,176.49Z"/><path class="cls-3" d="M220.76,180.81c-4.07,0-7.37-1.9-7.45-4.26v.08c0,2.4,3.34,4.34,7.45,4.34s7.45-1.94,7.45-4.34c0,0,0,0,0-.08C228.13,178.91,224.83,180.81,220.76,180.81Z"/><path class="cls-5" d="M226.61,55.28h-11.7V176.05c0,1.88,2.62,3.4,5.85,3.4s5.85-1.52,5.85-3.4V176h0Z"/><g class="cls-1"><path class="cls-4" d="M294.62,85.46c-2.28.6-5,0-7.74-1.58a24.65,24.65,0,0,1-7.11-6.5,36.09,36.09,0,0,0-10.43-9.57L226.68,43.18l-5,2.88,42.66,24.63a36.39,36.39,0,0,1,10.44,9.57,24.5,24.5,0,0,0,7.1,6.5c2.73,1.57,5.46,2.18,7.75,1.58l8.26,6.11,4.95-2.88Z"/><polygon class="cls-3" points="289.67 88.34 297.93 94.45 302.88 91.57 294.62 85.46 289.67 88.34"/><path class="cls-3" d="M279.77,77.38a36.09,36.09,0,0,0-10.43-9.57L226.68,43.18l-5,2.88,42.66,24.63a36.39,36.39,0,0,1,10.44,9.57Z"/><path class="cls-5" d="M264.38,70.69a36.39,36.39,0,0,1,10.44,9.57,24.5,24.5,0,0,0,7.1,6.5c2.73,1.57,5.46,2.18,7.75,1.58l8.26,6.11-4.84,1.27c-3.3.87-7.25,0-11.2-2.29a35.5,35.5,0,0,1-10.25-9.37,25.35,25.35,0,0,0-7.28-6.68l-42.67-21,0-10.36Z"/></g><circle class="cls-4" cx="219.09" cy="26.89" r="2.82"/><path class="cls-3" d="M255.29,166.6c0,12.2,12.94,22.09,28.92,22.09s28.92-9.89,28.92-22.09Z"/><path class="cls-6" d="M253,162.7h62.57v2.67c0,10.06-14,18.22-31.28,18.22S253,175.43,253,165.37c0-.09,0-.17,0-.25h0Z"/><ellipse class="cls-7" cx="284.27" cy="162.83" rx="31.29" ry="18.22"/><ellipse class="cls-4" cx="284.27" cy="162.91" rx="28.64" ry="16.68"/><path class="cls-2" d="M302.6,163.41a.49.49,0,0,1-.47-.34,4,4,0,0,0-1.13-1.3.5.5,0,1,1,.65-.76,4.71,4.71,0,0,1,1.42,1.74.5.5,0,0,1-.31.63A.45.45,0,0,1,302.6,163.41Zm-3.77-3.17a.53.53,0,0,1-.24-.06c-.55-.3-1.15-.58-1.76-.85a.49.49,0,0,1-.27-.65.51.51,0,0,1,.66-.27c.64.28,1.26.57,1.84.89a.49.49,0,0,1,.21.67A.5.5,0,0,1,298.83,160.24Zm-4.63-1.87-.14,0c-.61-.18-1.24-.34-1.91-.5a.48.48,0,0,1-.37-.59.49.49,0,0,1,.59-.38c.69.15,1.35.33,2,.51a.5.5,0,0,1,.34.62A.51.51,0,0,1,294.2,158.37Zm-4.89-1h-.06c-.64-.08-1.29-.15-2-.2a.5.5,0,1,1,.08-1c.69.05,1.37.12,2,.21a.5.5,0,0,1-.07,1Zm-5-.33h-.06a.5.5,0,0,1-.5-.5.5.5,0,0,1,.5-.5.54.54,0,0,1,.53.5A.48.48,0,0,1,284.33,157Z"/><path class="cls-3" d="M284.27,149.76c-14.8,0-27,6.53-28.48,14.91a9.45,9.45,0,0,1-.16-1.76c0-9.21,12.82-16.68,28.64-16.68s28.64,7.47,28.64,16.68a9.46,9.46,0,0,1-.17,1.76C311.23,156.29,299.06,149.76,284.27,149.76Z"/><path class="cls-8" d="M284.27,181c17.09,0,31-8,31.27-17.89,0,.11,0,.22,0,.33,0,10.06-14,18.21-31.28,18.21S253,173.47,253,163.41c0-.11,0-.22,0-.33C253.29,173,267.18,181,284.27,181Z"/><path class="cls-2" d="M263.15,172.64a.75.75,0,0,1-.75-.68.77.77,0,0,1,.68-.82l.67-.06a1.64,1.64,0,0,0,1.45-1.23l.14-.55a.75.75,0,0,1,1.45.37l-.14.55a3.14,3.14,0,0,1-2.76,2.36l-.67.06Z"/><path class="cls-6" d="M260.73,168.32a2.94,2.94,0,0,0-.13.93v4.07l4.44,2.57.19,1.46,1.13-.7v-4.08a6.36,6.36,0,0,0-2.88-5,2.11,2.11,0,0,0-1.91-.26h0a1.17,1.17,0,0,0-.3.19l-.95.57Zm1.53.76.74.37,1.52,2.33.2,1.56a1.21,1.21,0,0,1-1.24-.12,3.83,3.83,0,0,1-1.75-3A1.2,1.2,0,0,1,262.26,169.08Z"/><path class="cls-3" d="M259.47,170V174l5.76,3.32v-4.07a6.35,6.35,0,0,0-2.88-5C260.76,167.39,259.47,168.13,259.47,170Zm1.14,1c0-1.11.78-1.56,1.74-1a3.85,3.85,0,0,1,1.75,3c0,1.11-.78,1.55-1.75,1A3.86,3.86,0,0,1,260.61,170.92Z"/><path class="cls-2" d="M263,172.61a.75.75,0,0,1-.75-.72l-.09-2.66a1.1,1.1,0,0,1,0-.18l17.47-83.64a4.88,4.88,0,0,1,3-3.57,5.14,5.14,0,0,1,4.74.46.75.75,0,0,1-.83,1.25,3.61,3.61,0,0,0-3.35-.32,3.33,3.33,0,0,0-2.05,2.49L263.7,169.27l.08,2.57a.75.75,0,0,1-.73.77Z"/><path class="cls-6" d="M303.66,144.74a2.82,2.82,0,0,0-.14.92v4.08l4.45,2.57.19,1.46,1.12-.71V149a6.35,6.35,0,0,0-2.88-5,2.14,2.14,0,0,0-1.91-.27h0a1.92,1.92,0,0,0-.31.18l-.95.58Zm1.52.76.74.37,1.52,2.33.2,1.56a1.24,1.24,0,0,1-1.24-.12,3.88,3.88,0,0,1-1.75-3A1.22,1.22,0,0,1,305.18,145.5Z"/><path class="cls-3" d="M302.4,146.37v4.07l5.76,3.33v-4.08a6.34,6.34,0,0,0-2.88-5C303.69,143.81,302.4,144.54,302.4,146.37Zm1.13,1c0-1.1.78-1.55,1.75-1a3.83,3.83,0,0,1,1.74,3c0,1.11-.78,1.55-1.74,1A3.82,3.82,0,0,1,303.53,147.33Z"/><path class="cls-2" d="M304.41,148.24a3.66,3.66,0,0,1-2.59-1.06l-1-1a.75.75,0,0,1,0-1.06.74.74,0,0,1,1.06,0l1,1a2.15,2.15,0,0,0,2.22.5.76.76,0,0,1,1,.46.75.75,0,0,1-.46,1A3.5,3.5,0,0,1,304.41,148.24Z"/><polygon class="cls-2" points="218.24 35.34 220.54 33.97 233.87 57.06 231.57 58.43 218.24 35.34"/><polygon class="cls-9" points="218.24 35.34 231.57 58.43 218.15 66.08 204.81 42.98 218.24 35.34"/><polygon class="cls-5" points="208.92 44.1 217.13 39.42 227.46 57.32 219.26 62 208.92 44.1"/><polygon class="cls-2" points="208.92 44.1 209.66 43.66 220 61.56 219.26 62 208.92 44.1"/><path class="cls-3" d="M118.44,209.3v15.25a3.3,3.3,0,0,0,5.16,2.73l44.17-33.64V166.46a2.21,2.21,0,0,0-3.46-1.82l-37.7,29.17A18.79,18.79,0,0,0,118.44,209.3Z"/><path class="cls-6" d="M118.44,224.55V209.3a18.79,18.79,0,0,1,8.17-15.49l37.7-29.17a2.17,2.17,0,0,1,2.15-.19L88,119.09a2.21,2.21,0,0,0-2.17.18l-37.7,29.17a18.79,18.79,0,0,0-8.17,15.49v15.26a3.27,3.27,0,0,0,2.16,3.09l78.2,45.28,0,0A3.25,3.25,0,0,1,118.44,224.55Z"/><path class="cls-10" d="M118.44,224.62V209.36a18.79,18.79,0,0,1,8.17-15.49l37.7-29.17a2.2,2.2,0,0,1,1.39-.38,2.21,2.21,0,0,0-3-.49L125,193a18.79,18.79,0,0,0-8.17,15.49v15.26a3.29,3.29,0,0,0,2.61,3.22A3.22,3.22,0,0,1,118.44,224.62Z"/><polygon class="cls-9" points="129.48 223.26 131.25 222.09 130.84 224.01 129.48 223.26"/><path class="cls-5" d="M131.94,220.39V206.7c0-4.45,2.71-10.7,7.24-13.8l31.22-28.4a1.94,1.94,0,0,1,1.91-.17l-1.22-.77a1.94,1.94,0,0,0-1.91.17L138,192.13c-4.52,3.1-7.23,9.35-7.23,13.8v17.86l-1.23-.56-1,.75,3.47,2L133.6,223A2.88,2.88,0,0,1,131.94,220.39Z"/><path class="cls-9" d="M131.94,206.7v19.23l35.63-19.5a13.55,13.55,0,0,0,5.89-11.18V166.12a2,2,0,0,0-3.06-1.62l-31.22,28.4C134.65,196,131.94,202.25,131.94,206.7Z"/><path class="cls-11" d="M125.4,192.05a20.91,20.91,0,0,0-9.09,17.25v13.5L43,180.35l-.17-.07a1.14,1.14,0,0,1-.76-1.09V163.93a16.61,16.61,0,0,1,7.24-13.73Z"/><path class="cls-6" d="M116.31,206.26V222.8L43,180.35l-.17-.07a1.14,1.14,0,0,1-.76-1.09V163.93Z"/><path class="cls-4" d="M45.06,180.26l-.17-.06a1.15,1.15,0,0,1-.76-1.1V163.85a16.6,16.6,0,0,1,7.24-13.73L89.07,121l1-.59-1-.55L87,121,49.29,150.2a16.61,16.61,0,0,0-7.24,13.73v15.26a1.14,1.14,0,0,0,.76,1.09l.17.07,73.33,42.45v-1.28Z"/><path class="cls-12" d="M144.85,172.41,155.72,164l-68-39.64L76.55,133a2.39,2.39,0,0,0,.14,4.05l61.14,35.65A6.57,6.57,0,0,0,144.85,172.41Z"/><polygon class="cls-12" points="49.43 173.43 49.43 182.78 109.33 217.56 109.33 208.09 49.43 173.43"/><polygon class="cls-13" points="50.92 182.16 50.92 174.55 49.43 173.69 49.43 182.78 109.33 217.56 109.33 216.07 50.92 182.16"/><path class="cls-5" d="M123.53,170.8a3.14,3.14,0,0,1-3.07.15l-5-2.87a1,1,0,0,1-.06-1.93,3.14,3.14,0,0,1,3.07-.15l5,2.87A1.05,1.05,0,0,1,123.53,170.8Z"/><path class="cls-5" d="M133.36,176.44a3.14,3.14,0,0,1-3.07.15l-5-2.87a1.06,1.06,0,0,1-.05-1.94,3.14,3.14,0,0,1,3.07-.14l5,2.86A1.06,1.06,0,0,1,133.36,176.44Z"/><path class="cls-14" d="M123.48,168.24l-5-2.86a3.14,3.14,0,0,0-3.07.14,1.06,1.06,0,0,0,.06,1.94l5,2.87a3.14,3.14,0,0,0,3.07-.15A1.06,1.06,0,0,0,123.48,168.24Z"/><path class="cls-15" d="M133.3,173.88l-5-2.87a3.14,3.14,0,0,0-3.07.15,1.06,1.06,0,0,0,.05,1.94l5,2.86a3.14,3.14,0,0,0,3.07-.14A1.06,1.06,0,0,0,133.3,173.88Z"/><path class="cls-16" d="M133.36,175.4a3.14,3.14,0,0,1-3.07.15l-5-2.87a1.21,1.21,0,0,1-.63-.77,1.08,1.08,0,0,0,.63,1.19l5,2.86a3.14,3.14,0,0,0,3.07-.14,1.15,1.15,0,0,0,.58-1.17A1.35,1.35,0,0,1,133.36,175.4Z"/><path class="cls-17" d="M123.53,169.76a3.14,3.14,0,0,1-3.07.15l-5-2.87a1.2,1.2,0,0,1-.64-.77,1.07,1.07,0,0,0,.64,1.19l5,2.87a3.14,3.14,0,0,0,3.07-.15,1.12,1.12,0,0,0,.58-1.17A1.35,1.35,0,0,1,123.53,169.76Z"/><polygon class="cls-6" points="29.97 191.54 29.97 195.4 28.35 194.41 28.35 190.55 29.97 191.54"/><polygon class="cls-3" points="29.96 191.54 29.96 195.4 50.76 183.28 50.76 179.43 29.96 191.54"/><polygon class="cls-10" points="50.76 179.43 29.96 191.54 28.35 190.55 49.17 178.43 50.76 179.43"/><polygon class="cls-6" points="82.1 229.54 82.1 231.47 24.02 198.57 24.02 196.65 82.1 229.54"/><polygon class="cls-3" points="82.09 229.54 82.09 231.47 108.97 215.8 108.97 213.89 82.09 229.54"/><polygon class="cls-10" points="108.97 213.89 82.09 229.54 24.02 196.65 50.92 180.98 108.97 213.89"/><polygon class="cls-6" points="88.78 225.56 88.78 229.42 87.15 228.43 87.15 224.57 88.78 225.56"/><polygon class="cls-3" points="88.76 225.56 88.76 229.42 109.57 217.29 109.57 213.44 88.76 225.56"/><polygon class="cls-10" points="109.57 213.44 88.76 225.56 87.15 224.57 107.97 212.44 109.57 213.44"/><polygon class="cls-6" points="152.01 135.38 152.01 166 84.7 127.89 84.7 97.27 152.01 135.38"/><polygon class="cls-3" points="151.99 135.38 151.99 166 153.82 165.03 153.82 134.43 151.99 135.38"/><polygon class="cls-10" points="153.82 134.43 151.99 135.38 84.7 97.27 86.56 96.29 153.82 134.43"/><polygon class="cls-18" points="147 139.38 147 166.21 88.84 133.27 88.84 106.44 147 139.38"/><polygon class="cls-19" points="54.95 243.97 0 212.24 52.85 180.74 107.8 212.47 54.95 243.97"/><polygon class="cls-18" points="55.07 242.6 0.12 210.88 52.84 180.65 107.79 212.38 55.07 242.6"/><path class="cls-3" d="M79.08,199.91l-1,.57,2,1.15,1-.57Zm-10.37-2.38,13.23,7.63,1-.57L69.7,197Zm3.85,3.53-1,.57,5.62,3.23,1-.57Zm-6.1.07,10.06,5.79,1-.57-10.06-5.8Zm25.94,6.46-10.47-6-1,.57,10.47,6ZM87,209.41l-8-4.63-1,.58,8,4.62ZM58.53,191.63,67.86,197l1-.57-9.33-5.41Zm7.08,9,1-.57-4.39-2.55-1,.57Zm.71-6.93L77.24,200l1-.57-10.92-6.29Zm5.39,6.87-9.15-5.31-1,.57,9.15,5.31Zm-10-5.8-10-5.77-1,.57,9.95,5.77Zm-3-4.2-4.79-2.79-1,.57,4.79,2.79Zm33.6,18.08,3.54,2,1-.57-3.54-2ZM48.8,190.88l11.57,6.71,1-.58-11.57-6.7Zm34,14.77,10.89,6.28,1-.58-10.89-6.27Zm4.1,4.82,4.67,2.68,1-.57-4.67-2.68ZM78,207.79l11.43,6.58,1-.57L79,207.22Z"/><path class="cls-3" d="M68.42,205.86l-1,.57,2,1.15,1-.57Zm-10.37-2.38,13.23,7.63,1-.57L59,202.91ZM61.9,207l-1,.57,5.62,3.23,1-.57Zm-6.1.06,10.06,5.8,1-.57-10.06-5.8Zm25.94,6.47-10.48-6-1,.58,10.48,6Zm-5.36,1.81-8-4.62-1,.58,8,4.62ZM47.87,197.58,57.2,203l1-.57L48.86,197Zm-4,5,13.56,7.85,1-.57-13.56-7.85ZM58.31,211l10.06,5.8,1-.57L59.3,210.4ZM55,206.58l1-.57-4.39-2.55-1,.57Zm.71-6.93,10.92,6.29,1-.57-10.92-6.29Zm5.39,6.87-9.15-5.31-1,.57,9.15,5.31Zm-10-5.8L41.1,195l-1,.57,9.94,5.77Zm-3-4.2-4.79-2.79-1,.57L47,197.09Zm33.6,18.08,3.54,2.05,1-.57L82.6,214ZM43,202.14l1-.58-7.17-4.16-1,.57Zm-4.9-5.31,11.57,6.7,1-.57-11.57-6.7Zm31.09,20.44,7.44,4.28,1-.57-7.44-4.29Zm2.91-5.67L83,217.87l1-.57L73.13,211Zm4.1,4.82,4.67,2.68,1-.57-4.67-2.68Zm-8.88-2.68,11.43,6.58,1-.57-11.43-6.58ZM55.5,210.68l-1,.57,5.62,3.23,1-.57Zm-6.11.06,10.07,5.8,1-.57-10.07-5.8ZM70,219l-8-4.62L61,215l8,4.62Zm-21.43-8.77,1-.57-4.38-2.56-1,.57Zm6.1-.07-9.15-5.3-1,.57,9.15,5.3Zm-10-5.8-9.94-5.76-1,.57L43.65,205Zm-12.9-3.88,11.56,6.7,1-.57-11.56-6.7Zm38.1,19.58,4.66,2.68,1-.57-4.66-2.68ZM61,217.41,72.38,224l1-.57L62,216.84Z"/><path class="cls-3" d="M27.13,206.66l-1,.57,3.56,2.05,1-.57Zm-5.46.44,8,4.62,1-.57-8-4.62Zm17.87,6.73-8-4.62-1,.57,8,4.62ZM30,215.66l-8.41-4.86-1,.57L29,216.23Zm9.46-.77,2.19,1.27,1-.57-2.19-1.27Zm-8.88-2.68,8.95,5.17,1-.57-8.95-5.17Z"/><path class="cls-15" d="M48.64,138.74a.51.51,0,0,1-.4-.2.5.5,0,0,1,.1-.7l1.09-.84a.51.51,0,0,1,.7.09.49.49,0,0,1-.09.7l-1.1.84A.48.48,0,0,1,48.64,138.74Zm3.48-2.67a.48.48,0,0,1-.4-.19.49.49,0,0,1,.09-.7L53.4,134a.5.5,0,1,1,.61.79L52.42,136A.49.49,0,0,1,52.12,136.07Zm4-3a.48.48,0,0,1-.39-.19.49.49,0,0,1,.09-.7l1.59-1.22a.5.5,0,0,1,.7.09.5.5,0,0,1-.09.7l-1.59,1.22A.5.5,0,0,1,56.08,133Zm4-3a.49.49,0,0,1-.39-.19.51.51,0,0,1,.09-.71l1.59-1.21a.5.5,0,1,1,.6.79l-1.58,1.22A.5.5,0,0,1,60.05,130Zm4-3a.53.53,0,0,1-.4-.19.52.52,0,0,1,.1-.71l1.59-1.21a.5.5,0,0,1,.7.09.51.51,0,0,1-.1.7l-1.58,1.22A.5.5,0,0,1,64,127Zm4-3a.5.5,0,0,1-.3-.9l1.58-1.21a.5.5,0,1,1,.61.79l-1.59,1.22A.47.47,0,0,1,68,123.91Zm4-3a.51.51,0,0,1-.4-.2.5.5,0,0,1,.1-.7l1.58-1.21a.5.5,0,1,1,.61.79l-1.59,1.22A.47.47,0,0,1,72,120.87Zm4-3a.5.5,0,0,1-.31-.9l.1-.07v-1.39a.51.51,0,0,1,.5-.5.5.5,0,0,1,.5.5v1.88l-.49.38A.54.54,0,0,1,75.93,117.83Zm.29-4.86a.5.5,0,0,1-.5-.5v-2a.51.51,0,0,1,.5-.5.5.5,0,0,1,.5.5v2A.5.5,0,0,1,76.22,113Z"/><path class="cls-20" d="M147.24,318.76h0a19.38,19.38,0,0,1-2-.22.5.5,0,0,1-.42-.57.51.51,0,0,1,.57-.42c.64.1,1.29.17,1.94.22a.49.49,0,0,1,.47.53A.5.5,0,0,1,147.24,318.76Zm3,0a.5.5,0,0,1,0-1c.66-.05,1.31-.13,1.94-.24a.5.5,0,0,1,.58.41.51.51,0,0,1-.41.58c-.66.11-1.35.2-2,.25Zm-7.91-.87a.32.32,0,0,1-.14,0,18.55,18.55,0,0,1-1.94-.68.5.5,0,1,1,.38-.92c.6.24,1.22.46,1.84.64a.5.5,0,0,1,.34.63A.51.51,0,0,1,142.33,317.89Zm12.79-.13a.51.51,0,0,1-.17-1,15.87,15.87,0,0,0,1.78-.76.5.5,0,0,1,.46.88,16.27,16.27,0,0,1-1.9.83A.47.47,0,0,1,155.12,317.76Zm-17.36-1.88a.57.57,0,0,1-.25-.06l-1.73-1a.5.5,0,0,1,.5-.86l1.73,1a.5.5,0,0,1,.19.68A.51.51,0,0,1,137.76,315.88Zm21.81-.4a.5.5,0,0,1-.25-.93l1.74-1a.5.5,0,0,1,.68.18.52.52,0,0,1-.19.69l-1.74,1A.5.5,0,0,1,159.57,315.48Zm-26.13-2.1a.43.43,0,0,1-.25-.07l-1.74-1a.5.5,0,0,1-.18-.68.5.5,0,0,1,.68-.18l1.74,1a.5.5,0,0,1-.25.93Zm30.47-.38a.52.52,0,0,1-.44-.25.51.51,0,0,1,.19-.68l1.74-1a.5.5,0,0,1,.49.87l-1.73,1A.57.57,0,0,1,163.91,313Zm4.34-2.47a.49.49,0,0,1-.43-.26.49.49,0,0,1,.18-.68l1.74-1a.5.5,0,0,1,.68.19.49.49,0,0,1-.18.68l-1.74,1A.55.55,0,0,1,168.25,310.53Zm4.34-2.48a.5.5,0,0,1-.43-.25.51.51,0,0,1,.19-.69l1.73-1a.52.52,0,0,1,.69.19.5.5,0,0,1-.19.68l-1.74,1A.45.45,0,0,1,172.59,308.05Zm4.35-2.48a.51.51,0,0,1-.44-.25.5.5,0,0,1,.19-.68l1.74-1a.51.51,0,0,1,.68.19.49.49,0,0,1-.19.68l-1.73,1A.47.47,0,0,1,176.94,305.57Zm4.34-2.48a.5.5,0,0,1-.25-.93l1.74-1a.49.49,0,0,1,.68.18.51.51,0,0,1-.18.69l-1.74,1A.57.57,0,0,1,181.28,303.09Zm4.34-2.48a.5.5,0,0,1-.43-.25.5.5,0,0,1,.18-.68l1.74-1a.49.49,0,0,1,.68.18.51.51,0,0,1-.18.69l-1.74,1A.54.54,0,0,1,185.62,300.61Zm4.35-2.47a.49.49,0,0,1-.44-.26.5.5,0,0,1,.19-.68l1.73-1a.52.52,0,0,1,.69.19.51.51,0,0,1-.19.68l-1.74,1A.51.51,0,0,1,190,298.14Z"/><path class="cls-15" d="M74.37,105.34a4.59,4.59,0,0,0,2.08,3.6,1.9,1.9,0,0,0,.9.28c.65,0,1.06-.54,1.06-1.39a4.6,4.6,0,0,0-2.09-3.6,1.87,1.87,0,0,0-.9-.28C74.77,104,74.37,104.49,74.37,105.34Z"/><path class="cls-20" d="M126.69,310.31c0,.91,1.27,1.65,2.83,1.65s2.83-.74,2.83-1.65-1.26-1.64-2.83-1.64S126.69,309.4,126.69,310.31Z"/><path class="cls-14" d="M26.53,242.14c0,.92,1.27,1.65,2.83,1.65s2.83-.73,2.83-1.65-1.26-1.64-2.83-1.64S26.53,241.23,26.53,242.14Z"/><path class="cls-15" d="M199.47,210.12c0,.91,1.27,1.65,2.83,1.65s2.83-.74,2.83-1.65-1.26-1.65-2.83-1.65S199.47,209.21,199.47,210.12Z"/><polygon class="cls-20" points="190.81 294.52 194.37 296.9 196.75 292.86 190.81 294.52"/><polygon class="cls-15" points="242.52 206.7 246.08 209.08 248.46 205.04 242.52 206.7"/><polygon class="cls-15" points="50.15 139.52 46.59 137.15 44.21 141.19 50.15 139.52"/><polygon class="cls-14" points="72.04 268.82 75.6 266.44 77.98 270.48 72.04 268.82"/><path class="cls-14" d="M73.8,268.32a.57.57,0,0,1-.25-.06l-1.73-1a.51.51,0,0,1-.18-.69.49.49,0,0,1,.68-.18l1.73,1a.5.5,0,0,1,.19.68A.51.51,0,0,1,73.8,268.32Zm-4.33-2.5a.47.47,0,0,1-.25-.07l-1.73-1a.5.5,0,1,1,.51-.86l1.73,1a.5.5,0,0,1-.26.93Zm-4.32-2.5a.45.45,0,0,1-.25-.07l-1.73-1a.5.5,0,0,1-.19-.68.51.51,0,0,1,.69-.19l1.73,1a.5.5,0,0,1-.25.93Zm-4.33-2.5a.55.55,0,0,1-.25-.07l-1.73-1a.52.52,0,0,1-.19-.69.51.51,0,0,1,.69-.18l1.73,1a.51.51,0,0,1,.18.69A.5.5,0,0,1,60.82,260.82Zm-4.33-2.51a.47.47,0,0,1-.25-.07l-1.73-1a.5.5,0,0,1,.5-.86l1.73,1a.5.5,0,0,1-.25.93Zm-4.33-2.5a.47.47,0,0,1-.25-.07l-1.73-1a.5.5,0,0,1,.5-.86l1.73,1a.5.5,0,0,1,.19.68A.52.52,0,0,1,52.16,255.81Zm-4.33-2.5a.59.59,0,0,1-.25-.07l-1.73-1a.5.5,0,0,1,.5-.87l1.73,1a.52.52,0,0,1,.19.69A.51.51,0,0,1,47.83,253.31ZM43.5,250.8a.57.57,0,0,1-.25-.06l-1.73-1a.51.51,0,0,1-.18-.69.49.49,0,0,1,.68-.18l1.74,1a.5.5,0,0,1-.26.93Zm-4.32-2.5a.45.45,0,0,1-.25-.07l-1.74-1a.5.5,0,1,1,.51-.86l1.73,1a.5.5,0,0,1-.25.93Zm-4.33-2.5a.45.45,0,0,1-.25-.07l-1.73-1a.5.5,0,1,1,.5-.87l1.73,1a.51.51,0,0,1,.18.69A.5.5,0,0,1,34.85,245.8Zm-4.33-2.51a.54.54,0,0,1-.25-.06l-.34-.2a.5.5,0,1,1,.5-.87l.34.2a.5.5,0,0,1-.25.93Z"/><path class="cls-20" d="M290.43,68.28c0-.91-1.27-1.65-2.83-1.65s-2.84.74-2.84,1.65,1.27,1.65,2.84,1.65S290.43,69.19,290.43,68.28Z"/><polygon class="cls-20" points="250.65 45.05 247.08 47.43 244.7 43.39 250.65 45.05"/><path class="cls-20" d="M285.29,67.47a.5.5,0,0,1-.24-.06l-1.74-1a.49.49,0,0,1-.18-.68.51.51,0,0,1,.68-.19l1.73,1a.5.5,0,0,1-.25.93ZM281,65a.54.54,0,0,1-.25-.06l-1.73-1a.5.5,0,1,1,.49-.87l1.74,1A.5.5,0,0,1,281,65Zm-4.34-2.49a.57.57,0,0,1-.25-.06l-1.73-1a.5.5,0,0,1,.5-.87l1.73,1a.5.5,0,0,1,.19.68A.51.51,0,0,1,276.62,62.49ZM272.29,60a.45.45,0,0,1-.25-.07l-1.73-1a.5.5,0,0,1-.19-.68.49.49,0,0,1,.68-.19l1.74,1a.5.5,0,0,1-.25.93ZM268,57.51a.47.47,0,0,1-.25-.07l-1.73-1a.51.51,0,0,1-.18-.69.49.49,0,0,1,.68-.18l1.73,1a.49.49,0,0,1,.19.68A.51.51,0,0,1,268,57.51ZM263.62,55a.45.45,0,0,1-.25-.07l-1.73-1a.51.51,0,0,1-.19-.69.5.5,0,0,1,.68-.18l1.74,1a.51.51,0,0,1,.18.69A.5.5,0,0,1,263.62,55Zm-4.34-2.49a.47.47,0,0,1-.25-.07l-1.73-1a.5.5,0,1,1,.5-.86l1.73,1a.52.52,0,0,1,.19.69A.51.51,0,0,1,259.28,52.53ZM255,50a.55.55,0,0,1-.25-.07L253,49a.5.5,0,1,1,.5-.86l1.74,1a.5.5,0,0,1,.18.68A.49.49,0,0,1,255,50Zm-4.34-2.49a.59.59,0,0,1-.25-.07l-1.73-1a.49.49,0,0,1-.18-.68.5.5,0,0,1,.68-.19l1.73,1a.51.51,0,0,1,.19.68A.5.5,0,0,1,250.61,47.55Z"/><path class="cls-15" d="M327.36,278.1c0-.91-1.27-1.65-2.83-1.65s-2.83.74-2.83,1.65,1.27,1.65,2.83,1.65S327.36,279,327.36,278.1Z"/><polygon class="cls-15" points="300.05 262.14 296.48 264.52 294.11 260.48 300.05 262.14"/><path class="cls-15" d="M321.73,277a.57.57,0,0,1-.25-.06l-1.73-1a.5.5,0,0,1,.49-.87l1.74,1a.51.51,0,0,1,.19.68A.51.51,0,0,1,321.73,277Zm-4.34-2.47a.55.55,0,0,1-.25-.07l-1.74-1a.49.49,0,0,1-.18-.68.51.51,0,0,1,.68-.19l1.74,1a.49.49,0,0,1,.18.68A.49.49,0,0,1,317.39,274.54Zm-4.34-2.48a.45.45,0,0,1-.25-.07l-1.74-1a.51.51,0,0,1-.19-.68.52.52,0,0,1,.69-.19l1.73,1a.51.51,0,0,1,.19.69A.5.5,0,0,1,313.05,272.06Zm-4.35-2.48a.5.5,0,0,1-.24-.06l-1.74-1a.5.5,0,1,1,.49-.87l1.74,1a.49.49,0,0,1,.19.68A.5.5,0,0,1,308.7,269.58Zm-4.34-2.48a.57.57,0,0,1-.25-.06l-1.73-1a.51.51,0,0,1-.19-.69.49.49,0,0,1,.68-.18l1.74,1a.5.5,0,0,1,.19.68A.52.52,0,0,1,304.36,267.1ZM300,264.62a.54.54,0,0,1-.25-.06l-1.74-1a.49.49,0,0,1-.18-.68.5.5,0,0,1,.68-.19l1.74,1a.5.5,0,0,1-.25.93Z"/><path class="cls-15" d="M220.39,214.07h0c-.67,0-1.35,0-2-.06a.5.5,0,0,1-.47-.53.49.49,0,0,1,.52-.47q1,0,2,.06a.5.5,0,0,1,.5.5A.51.51,0,0,1,220.39,214.07Zm3,0a.52.52,0,0,1-.5-.49.5.5,0,0,1,.49-.51c.66,0,1.32-.07,2-.12a.51.51,0,0,1,.54.47.5.5,0,0,1-.46.53c-.67.05-1.34.09-2,.12Zm-8-.24h-.06c-.67-.06-1.33-.14-2-.23a.5.5,0,0,1-.43-.56.49.49,0,0,1,.56-.43c.66.09,1.32.16,2,.23a.5.5,0,0,1,.45.55A.49.49,0,0,1,215.4,213.79Zm13-.18a.5.5,0,0,1-.07-1c.66-.08,1.31-.18,2-.29a.5.5,0,0,1,.17,1c-.66.11-1.33.21-2,.29Zm-17.92-.54h-.1c-.66-.13-1.32-.27-2-.43a.5.5,0,0,1,.23-1c.64.15,1.28.29,1.93.41a.5.5,0,0,1-.09,1Zm22.84-.33a.5.5,0,0,1-.11-1l1.92-.48a.5.5,0,0,1,.26,1c-.65.18-1.3.34-2,.49Zm-27.7-.87-.14,0q-1-.28-1.92-.63a.5.5,0,1,1,.33-.94c.62.22,1.24.42,1.88.62a.5.5,0,0,1,.33.62A.49.49,0,0,1,205.59,211.87Zm32.5-.5a.5.5,0,0,1-.16-1c.63-.22,1.24-.45,1.85-.7a.51.51,0,0,1,.65.28.5.5,0,0,1-.28.65c-.62.25-1.25.49-1.9.71A.41.41,0,0,1,238.09,211.37Zm4.61-1.93a.5.5,0,0,1-.22-.95c.59-.29,1.17-.6,1.73-.93a.5.5,0,1,1,.5.87c-.58.33-1.17.65-1.79,1A.54.54,0,0,1,242.7,209.44Z"/><path class="cls-6" d="M295.68,246.58H246v2.57c0,8,11.13,14.48,24.86,14.48s24.87-6.48,24.87-14.48c0-.06,0-.13,0-.2h0Z"/><ellipse class="cls-10" cx="270.81" cy="246.68" rx="24.87" ry="14.48"/><path class="cls-18" d="M270.81,261.1c-13.58,0-24.61-6.34-24.85-14.22,0,.09,0,.17,0,.26,0,8,11.13,14.48,24.86,14.48s24.87-6.48,24.87-14.48c0-.09,0-.17,0-.26C295.43,254.76,284.4,261.1,270.81,261.1Z"/><path class="cls-6" d="M294.28,239.7H247.44V246c0,7.53,10.49,13.64,23.42,13.64s23.42-6.11,23.42-13.64c0-.06,0-.13,0-.19h0Z"/><ellipse class="cls-10" cx="270.86" cy="239.8" rx="23.42" ry="13.64"/><path class="cls-6" d="M258.9,238.29c-.78,4.13,4.33,8.56,11.42,9.91s13.47-.92,14.25-5-4.33-8.56-11.42-9.9S259.68,234.16,258.9,238.29Z"/><path class="cls-18" d="M270.86,253.38c-12.79,0-23.18-6-23.41-13.39,0,.08,0,.16,0,.24,0,7.53,10.49,13.64,23.42,13.64s23.42-6.11,23.42-13.64c0-.08,0-.16,0-.24C294,247.4,283.65,253.38,270.86,253.38Z"/><g class="cls-21"><path class="cls-10" d="M287.2,247.94l4.84-2.82,39,22.53h0a9.69,9.69,0,0,1-9.7,0Z"/></g><path class="cls-12" d="M330.77,258.62a5.39,5.39,0,1,1-7.58.8A5.4,5.4,0,0,1,330.77,258.62Z"/><path class="cls-2" d="M302,233.9l-8.35,10.3,28.44,22.94h0s0,0,0,0c1.65,1.34,4.87.12,7.17-2.72s2.84-6.24,1.18-7.58l0,0h0Z"/><path class="cls-5" d="M302,233.92c1.66,1.34,1.13,4.74-1.18,7.58s-5.51,4.06-7.17,2.72-1.13-4.74,1.18-7.58S300.34,232.58,302,233.92Z"/><path class="cls-12" d="M291.64,229l-5,6.13,8.08,6.55h0c1,.81,2.9.09,4.27-1.61s1.69-3.71.7-4.51h0Z"/><path class="cls-3" d="M285.55,242.83l-20-16-2.4,3-.07.08c-2.57,3.21-.18,9.39,5.34,13.81s12.07,5.39,14.64,2.17l.06-.08h0Z"/><ellipse class="cls-6" cx="275.53" cy="234.88" rx="7.45" ry="12.79" transform="translate(-80.01 303.28) rotate(-51.34)"/><path class="cls-18" d="M270.89,240.67c-5.46-4.36-7.85-10.46-5.41-13.7l-.09.1c-2.57,3.21-.18,9.4,5.33,13.81s12.08,5.39,14.65,2.18a1,1,0,0,1,.08-.11C282.82,246,276.35,245,270.89,240.67Z"/><path class="cls-4" d="M285.48,238.38l-15.55-12.45-1.87,2.34-.05.06c-2,2.5-.14,7.32,4.15,10.75s9.4,4.2,11.4,1.7l.05-.07h0Z"/><path class="cls-22" d="M269.9,226c-2,2.51-.14,7.32,4.16,10.76s9.4,4.19,11.4,1.69.14-7.31-4.16-10.75S271.91,223.46,269.9,226Z"/><path class="cls-18" d="M274.07,236.7c-4.25-3.4-6.11-8.15-4.21-10.67l-.07.08c-2,2.5-.14,7.31,4.15,10.75s9.4,4.19,11.4,1.69l.06-.08C283.36,240.87,278.32,240.1,274.07,236.7Z"/><path class="cls-3" d="M296.81,226.13l-17.42-13.94-2.09,2.62-8.22,10.27c-2.24,2.81-.16,8.2,4.65,12s10.53,4.69,12.77,1.89l.05-.07h0Z"/><path class="cls-6" d="M279.37,212.23c-2.25,2.8-.16,8.19,4.65,12s10.52,4.7,12.77,1.89.15-8.19-4.66-12S281.61,209.43,279.37,212.23Z"/><path class="cls-18" d="M284,224.25c-4.75-3.81-6.84-9.12-4.72-11.95l-.07.09c-2.24,2.8-.16,8.19,4.65,12s10.53,4.7,12.77,1.9a.61.61,0,0,1,.07-.1C294.43,228.92,288.79,228.05,284,224.25Z"/><path class="cls-4" d="M298.23,222.45,282.68,210l-1.87,2.34-.05.06c-2,2.5-.15,7.32,4.15,10.75s9.4,4.2,11.4,1.7l.05-.07h0Z"/><path class="cls-22" d="M282.65,210c-2,2.51-.14,7.32,4.15,10.76s9.4,4.19,11.4,1.69.15-7.31-4.15-10.75S284.65,207.53,282.65,210Z"/><path class="cls-18" d="M286.82,220.77c-4.25-3.4-6.11-8.15-4.22-10.67l-.06.08c-2,2.5-.15,7.31,4.15,10.75s9.4,4.19,11.4,1.69l.06-.08C296.1,224.94,291.07,224.17,286.82,220.77Z"/><path class="cls-3" d="M303.43,220.49l-20-16-2.4,3-.07.08c-2.57,3.22-.18,9.4,5.34,13.81s12.07,5.39,14.64,2.18l.06-.08h0Z"/><ellipse class="cls-6" cx="293.41" cy="212.54" rx="7.45" ry="12.79" transform="translate(-55.85 308.85) rotate(-51.34)"/><path class="cls-18" d="M288.77,218.33c-5.46-4.37-7.85-10.46-5.41-13.7l-.09.1c-2.57,3.21-.18,9.39,5.33,13.81s12.08,5.38,14.65,2.17l.07-.11C300.7,223.69,294.23,222.69,288.77,218.33Z"/><path class="cls-23" d="M141.77,309.83l-49.71-29c-3.21-1.85-2.81-5.09.89-7.23l75-43.29c3.71-2.14,9.31-2.38,12.52-.52l49.72,29c3.21,1.86,2.81,5.09-.9,7.23l-75,43.3C150.59,311.45,145,311.68,141.77,309.83Z"/><path class="cls-6" d="M222.08,250.25c0-.93-.77-1.89-2.08-2.69l-6.11-3.75,1.3-.47c2.88-1.07,3.23-3.28.58-5a13.25,13.25,0,0,0-10.25-1.14l-1.47.55-6.11-3.74a13.1,13.1,0,0,0-5-1.63,12.83,12.83,0,0,0-5.85.47l-5.36,2,32.57,19.94,5.35-2C221.24,252.25,222.11,251.31,222.08,250.25Zm-13.83-9.18c-1.24-.77-1.18-1.78.14-2.27a6.06,6.06,0,0,1,4.65.5c1.24.76,1.18,1.77-.14,2.26A6.05,6.05,0,0,1,208.25,241.07Z"/><path class="cls-2" d="M142.12,308.81l-49.74-29c-3.19-1.84-2.79-5.06.89-7.19l74.84-43.19c3.68-2.13,9.26-2.36,12.45-.51l49.74,29c3.2,1.85,2.79,5.06-.89,7.19l-74.83,43.19C150.89,310.42,145.31,310.65,142.12,308.81Z"/><path class="cls-5" d="M142.12,307.79l-49.74-29c-3.19-1.84-2.79-5.06.89-7.19l74.84-43.19c3.68-2.13,9.26-2.36,12.45-.52l49.74,29c3.2,1.84,2.79,5.06-.89,7.19l-74.83,43.19C150.89,309.4,145.31,309.63,142.12,307.79Z"/><path class="cls-4" d="M229.41,263.52l-74.83,43.19c-3.69,2.13-9.27,2.36-12.46.52l-49.74-29a3.81,3.81,0,0,1-2.14-2.86c-.13,1.28.57,2.51,2.14,3.42l49.74,29c3.19,1.84,8.77,1.61,12.46-.52l74.83-43.19c2.14-1.24,3.16-2.84,3-4.33C232.3,261.08,231.28,262.44,229.41,263.52Z"/><polygon class="cls-24" points="147.12 303.53 95.93 268.9 176.19 229.88 227.38 264.51 147.12 303.53"/><polygon class="cls-7" points="148.09 302.46 96.9 267.84 177.16 228.82 228.35 263.44 148.09 302.46"/><polygon class="cls-24" points="147.52 304.67 93.46 273.46 171.53 228.38 225.59 259.6 147.52 304.67"/><polygon class="cls-18" points="148.38 303.42 94.86 272.51 172.14 227.89 225.66 258.8 148.38 303.42"/><path class="cls-24" d="M221.78,249.63a3.83,3.83,0,0,0-2.17-2.82l-6.1-3.53,1.21-.7c2.69-1.55,2.88-4.11.22-5.7a10.81,10.81,0,0,0-9.9-.07l-1.37.79-6.11-3.52a10.54,10.54,0,0,0-4.88-1.26,10.8,10.8,0,0,0-5.57,1.24l-5,2.35,32.53,18.79,5-2.36C221.11,252,221.89,250.83,221.78,249.63Zm-13.86-8.8c-1.25-.72-1.25-1.88,0-2.59a5,5,0,0,1,4.49,0c1.24.72,1.25,1.87,0,2.59A5,5,0,0,1,207.92,240.83Z"/><path class="cls-6" d="M221.42,248.55a3.85,3.85,0,0,0-2.17-2.82l-6.1-3.52,1.21-.7c2.69-1.56,2.88-4.11.22-5.7a10.79,10.79,0,0,0-9.89-.07l-1.38.79-6.1-3.53a10.62,10.62,0,0,0-4.89-1.25,10.8,10.8,0,0,0-5.57,1.24l-5,2.91,32.54,18.78,5-2.91C220.75,250.92,221.53,249.75,221.42,248.55Zm-13.86-8.79c-1.24-.72-1.25-1.88,0-2.59a5,5,0,0,1,4.49,0c1.24.72,1.25,1.88,0,2.59A5,5,0,0,1,207.56,239.76Z"/><path class="cls-10" d="M212,236.67a5,5,0,0,0-4.49,0,1.45,1.45,0,0,0-.88,1.54,1.7,1.7,0,0,1,.88-1,5,5,0,0,1,4.49,0,1.77,1.77,0,0,1,.9,1.05C213.06,237.68,212.77,237.1,212,236.67Z"/><path class="cls-10" d="M214.36,241l-1.21.7.43.25.78-.45c1.52-.88,2.24-2.07,2.1-3.23A3.74,3.74,0,0,1,214.36,241Z"/><path class="cls-3" d="M219.29,251.27l-5,2.91-32.11-18.53-.43.25,32.54,18.78,5-2.91c1.46-.85,2.24-2,2.13-3.22v0A3.85,3.85,0,0,1,219.29,251.27Z"/><polygon class="cls-10" points="215.51 251.05 186.98 234.58 188.21 233.88 216.73 250.35 215.51 251.05"/><polygon class="cls-3" points="215.22 251.41 186.7 234.94 187.92 234.24 216.44 250.71 215.22 251.41"/><path class="cls-15" d="M186.22,250.07l1.31-.76-2.65-1.53-1.32.76Zm11,1.6-14.86-8.58-1.31.76L196,252.43Zm-25.48-9.94,10.65,6.15,1.32-.76L173.1,241Zm35.85,15.92-9.23-5.33-1.32.76,9.23,5.33Zm-7.18-.88L188.67,250l-1.32.76,11.79,6.81Zm7,2.3,2.76,1.59,1.32-.76-2.76-1.59ZM172,240.32l-4.72-2.73-1.31.76,4.71,2.73Zm9.31,2.11L170.07,236l-1.32.76,11.2,6.47Z"/><path class="cls-3" d="M184.85,253.76l-1,.58,2,1.15,1-.58Zm-10.36-2.38L187.72,259l1-.57-13.23-7.63Zm3.85,3.53-1,.57,5.61,3.24,1-.58Zm-6.11.07,10.07,5.8,1-.58-10.07-5.79Zm25.94,6.46-10.47-6-1,.57,10.47,6Zm-5.36,1.82-8-4.62-1,.57,8,4.62Zm-28.5-17.78,9.32,5.41,1-.57-9.33-5.41Zm-4,5.05,13.56,7.85,1-.57L161.32,250Zm14.41,8.35,10.07,5.8,1-.58-10.06-5.79Zm-3.36-4.4,1-.57L168,251.36l-1,.57Zm.71-6.93L183,253.84l1-.57L173.08,247Zm5.39,6.87-9.15-5.31-1,.57,9.15,5.31Zm-10-5.8-9.94-5.77-1,.58,9.94,5.76Zm-3-4.2-4.78-2.79-1,.57,4.78,2.79ZM198,262.51l3.54,2,1-.57L199,261.93ZM159.47,250l1-.57-7.17-4.17-1,.57Zm-4.89-5.31,11.56,6.71,1-.57-11.56-6.71Zm31.08,20.44,7.44,4.28,1-.57-7.44-4.28Zm2.91-5.67,10.89,6.28,1-.57-10.89-6.28Zm4.1,4.82,4.67,2.68,1-.57-4.67-2.68Zm-8.87-2.68,11.42,6.59,1-.58-11.42-6.58Z"/><path class="cls-3" d="M172.66,260.77l-1,.57,2,1.15,1-.57Zm-10.36-2.38L175.53,266l1-.57-13.23-7.63Zm3.84,3.53-1,.57,5.62,3.23,1-.57ZM160,262l10.07,5.79,1-.57L161,261.41ZM186,268.45l-10.47-6-1,.57L185,269Zm-5.36,1.82-8-4.62-1,.57,8,4.62Zm-28.51-17.78,9.33,5.41,1-.57-9.33-5.41Zm7.08,9,1-.57-4.39-2.55-1,.57Zm.71-6.93,10.92,6.29,1-.57L160.89,254Zm5.39,6.87-9.15-5.31-1,.57L164.3,262Zm-10-5.8-9.95-5.77-1,.57,10,5.77Zm-3-4.2-4.78-2.79-1,.57,4.78,2.79Zm33.6,18.08,3.54,2.05,1-.57-3.54-2.05Zm-43.47-17.77L154,258.45l1-.58-11.57-6.7Zm34,14.77,10.89,6.28,1-.58-10.89-6.27Zm4.1,4.82,4.67,2.68,1-.57-4.67-2.68Zm-8.88-2.68L183,275.23l1-.57-11.43-6.58Z"/><path class="cls-3" d="M162,266.72l-1,.57,2,1.15,1-.57Zm-10.37-2.38L164.87,272l1-.57-13.23-7.63Zm3.85,3.53-1,.57,5.62,3.23,1-.57Zm-6.1.06,10.07,5.8,1-.57-10.07-5.8Zm25.94,6.47-10.47-6-1,.58,10.47,6ZM170,276.21l-8-4.62-1,.58,8,4.62Zm-28.51-17.77,9.33,5.41,1-.57-9.33-5.41Zm-4,5.05L151,271.34l1-.57-13.56-7.85Zm14.42,8.34,10.06,5.8,1-.57-10.06-5.8Zm-3.36-4.39,1-.57-4.39-2.55-1,.57Zm.71-6.93,10.92,6.29,1-.57-10.92-6.29Zm5.39,6.87-9.15-5.31-1,.57,9.15,5.31Zm-10-5.8-9.95-5.77-1,.57,9.95,5.77Zm-3-4.2-4.79-2.79-1,.57L140.6,258Zm33.6,18.08,3.54,2.05,1-.57-3.54-2.05ZM136.62,263l1-.57-7.17-4.17-1,.57Zm-4.9-5.31,11.57,6.7,1-.57-11.57-6.7Zm31.09,20.44,7.44,4.28,1-.57-7.44-4.29Zm2.91-5.67,10.89,6.27,1-.57-10.89-6.27Zm4.1,4.82,4.67,2.68,1-.57-4.67-2.68Zm-8.88-2.68,11.43,6.58,1-.57L161.93,274Zm-11.86-3.06-1,.57,5.62,3.23,1-.57Zm-6.1.06L153,277.4l1-.57L144,271Zm20.57,8.28-8-4.62-1,.57,8,4.62Zm-21.43-8.77,1-.57L138.73,268l-1,.57Zm6.1-.07-9.15-5.3-1,.57,9.15,5.3Zm-10-5.8-9.94-5.76-1,.57,9.94,5.77Zm-12.9-3.88,11.56,6.7,1-.57-11.56-6.7ZM163.42,281l4.66,2.68,1-.58-4.66-2.68Zm-8.88-2.68L166,284.85l1-.57-11.42-6.58Z"/><path class="cls-3" d="M120.71,267.52l-1,.57,3.56,2.05,1-.57Zm-5.46.44,8,4.62,1-.57-8-4.62Zm17.88,6.73-8-4.62-1,.57,8,4.62Zm-9.6,1.83-8.41-4.86-1,.57,8.41,4.86Z"/><path class="cls-25" d="M159.15,284a.2.2,0,0,0-.23-.16l-1.58.28.16-.28a13.44,13.44,0,0,0-8.83-1.32c-3,.53-5.33,2-6,3.81l.38.14c.62-1.68,2.8-3,5.69-3.56a13.13,13.13,0,0,1,8.48,1.23L141.5,286.9a.2.2,0,0,0-.16.23.2.2,0,0,0,.2.17h0L159,284.23A.21.21,0,0,0,159.15,284Zm2,3.62-6.25,1.11a.2.2,0,0,0-.17.23.21.21,0,0,0,.2.17h0l4.54-.8c-.56,1.75-2.75,3.16-5.75,3.69a13.2,13.2,0,0,1-8.41-1.19l7.77-1.33a.2.2,0,0,0,.16-.23.2.2,0,0,0-.23-.17l-9.32,1.6a.2.2,0,0,0,0,.4h0l1.47-.25-.18.3a12.72,12.72,0,0,0,6.2,1.49,15.37,15.37,0,0,0,2.54-.22c3.17-.56,5.49-2.09,6.07-4l-.31-.09,1.63-.29a.2.2,0,0,0,.16-.23A.21.21,0,0,0,161.17,287.61Zm1.46-2.22c-1.58-2.93-6.18-4.9-11.44-4.9a20.65,20.65,0,0,0-3.44.29c-3.88.69-6.85,2.45-7.95,4.73a4.25,4.25,0,0,0,.1,4c1.58,2.93,6.17,4.9,11.43,4.9a19.67,19.67,0,0,0,3.45-.3c3.87-.68,6.85-2.45,7.95-4.72A4.25,4.25,0,0,0,162.63,285.39Zm-.26,3.83c-1.05,2.16-3.91,3.84-7.66,4.5a19,19,0,0,1-3.38.3c-5,0-9.59-1.93-11.07-4.69a3.83,3.83,0,0,1-.1-3.64c1.05-2.16,3.91-3.85,7.66-4.51a19.82,19.82,0,0,1,3.37-.29c5,0,9.59,1.93,11.08,4.69A3.88,3.88,0,0,1,162.37,289.22Zm-11.17-8.07a18.35,18.35,0,0,0-3.15.27c-3.52.62-6.23,2.22-7.23,4.29a3.8,3.8,0,0,0,.1,3.6c1.43,2.66,5.61,4.45,10.41,4.45a18.15,18.15,0,0,0,3.14-.27c3.53-.63,6.23-2.23,7.23-4.29a3.83,3.83,0,0,0-.09-3.6C160.18,282.94,156,281.15,151.2,281.15Zm10.32,8c-1,2-3.62,3.57-7.08,4.18a18.92,18.92,0,0,1-3.11.27c-4.65,0-8.86-1.79-10.24-4.35a3.62,3.62,0,0,1-.09-3.41c1-2,3.62-3.57,7.09-4.18a17.8,17.8,0,0,1,3.11-.27c4.65,0,8.85,1.79,10.23,4.34A3.64,3.64,0,0,1,161.52,289.11Z"/><path class="cls-25" d="M145.75,289.29a.25.25,0,0,1-.24-.2.25.25,0,0,1,.2-.28l12.18-2.3a.23.23,0,0,1,.28.19.24.24,0,0,1-.19.29l-12.18,2.3Z"/><path class="cls-25" d="M146.84,287.69a.25.25,0,0,1-.24-.2.24.24,0,0,1,.19-.29l8.87-1.67a.24.24,0,0,1,.29.19.26.26,0,0,1-.2.29l-8.86,1.67Z"/><path class="cls-2" d="M135.07,290.43h-.18a.5.5,0,0,1-.41-.37c-.51-2.1.22-4.41,2.23-7.05a3.44,3.44,0,0,0-1-1.13l-.55-.4a4.06,4.06,0,0,1-.72,1.55.52.52,0,0,1-.4.2H134a.5.5,0,0,1-.37-.37,7.38,7.38,0,0,1-.2-3.6,3.74,3.74,0,0,1,.79-1.45l-1.46.22a6.64,6.64,0,0,1-.42,5.45.45.45,0,0,1-.21.2,3.24,3.24,0,0,1-1.49.33,3.94,3.94,0,0,1-.77-.07,9.46,9.46,0,0,1-1.05,4,.5.5,0,0,1-.44.26,2.26,2.26,0,0,1-1.83-1.17,3.55,3.55,0,0,1-.31-1.66c0-1.32,0-2.66,0-4a5.33,5.33,0,0,1-.86-1.92.72.72,0,0,1-.11-.21,5.65,5.65,0,0,1-.61-2.52,4.76,4.76,0,0,0-.51-2.16l-.13-.27.88-.42.13.27a5.71,5.71,0,0,1,.61,2.53c0,.22,0,.43,0,.66a.49.49,0,0,1,.27-.13l.91-.1a.54.54,0,0,1,.38.13.51.51,0,0,1,.15.39c0,.78-.09,1.56-.12,2.35a4.55,4.55,0,0,0,.45.07,2.77,2.77,0,0,1,1.1.29,1.75,1.75,0,0,1,.75,1.14,9.07,9.07,0,0,1,.24,1.46,3.06,3.06,0,0,0,.79.1,2.4,2.4,0,0,0,.92-.16,5.78,5.78,0,0,0,.07-5,.5.5,0,0,1,0-.43.49.49,0,0,1,.36-.25l4.59-.68a.5.5,0,0,1,.54.4.49.49,0,0,1-.39.56,3,3,0,0,0-2.37,2.08.5.5,0,0,1,.29-.12h0a.48.48,0,0,1,.49.36,2.46,2.46,0,0,1,.1.47,4.08,4.08,0,0,0,.77.65l.34.25a4.32,4.32,0,0,1,1,1.09l.32-.38,1.15-1.3c.79-.87,1.59-1.77,2.29-2.7a3.71,3.71,0,0,1,.85-1.24,1.07,1.07,0,0,1,.44.15,32.88,32.88,0,0,1-2.85,4.45c-.38.42-.77.85-1.14,1.28l-.58.7a4.93,4.93,0,0,1,.23,2.14,11.9,11.9,0,0,1-1.5,4A1.74,1.74,0,0,1,135.07,290.43Zm2-6.28c-1.38,2-2,3.66-1.74,5.21a1.55,1.55,0,0,0,.36-.47,11.31,11.31,0,0,0,1.4-3.71A4.42,4.42,0,0,0,137.08,284.15Zm-9.86-1.69c0,1,0,1.9,0,2.85a2.75,2.75,0,0,0,.19,1.22,1.27,1.27,0,0,0,.7.58,8.2,8.2,0,0,0,.79-3.49A5.8,5.8,0,0,1,127.22,282.46Zm0-1.43a4.09,4.09,0,0,0,.48.55,5.5,5.5,0,0,0,1.06.89q-.06-.39-.15-.78c-.08-.31-.16-.46-.3-.54a1.91,1.91,0,0,0-.71-.16l-.38-.05Zm7-.67a6,6,0,0,0,0,.74,2.32,2.32,0,0,0,0-.59Zm-7.84-2.24a2.31,2.31,0,0,0-.05,1.05l.06-1.05Z"/><path class="cls-25" d="M225.62,279H197.18v4.38c0,4.58,6.36,8.28,14.22,8.28s14.22-3.7,14.22-8.28c0,0,0-.07,0-.11h0Z"/><ellipse class="cls-22" cx="211.4" cy="279.06" rx="14.22" ry="8.28"/><path class="cls-18" d="M211.4,287.31c-7.77,0-14.08-3.63-14.22-8.13v.15c0,4.57,6.36,8.28,14.22,8.28s14.22-3.71,14.22-8.28c0-.05,0-.1,0-.15C225.48,283.68,219.17,287.31,211.4,287.31Z"/><path class="cls-25" d="M218.94,265.91H203.86v12.82c0,2.43,3.37,4.39,7.54,4.39s7.54-2,7.54-4.39c0,0,0,0,0-.06h0Z"/><circle class="cls-20" cx="211.4" cy="262.25" r="10.91"/><path class="cls-25" d="M213.15,251.5a10.9,10.9,0,0,1-5,20.6,11.16,11.16,0,0,1-1.75-.16,10.9,10.9,0,1,0,6.74-20.44Z"/><circle class="cls-22" cx="207.93" cy="258.63" r="4.42"/><polygon class="cls-4" points="99.15 261.18 97.2 259.04 68.38 243.6 68.93 242.99 66.24 241.04 65.27 243.88 65 245.58 99.15 261.18"/><path class="cls-6" d="M99.15,261.18h0a2.34,2.34,0,0,1-3.17.95L65,245.58s1.93-1.65,2-1.64Z"/><path class="cls-10" d="M98.73,261.6l-32.2-17.24s-.92.75-1.49,1.24l0,0s1.92-1.65,1.94-1.64l32.21,17.24a2.43,2.43,0,0,1-.64.74A2.27,2.27,0,0,0,98.73,261.6Z"/><path class="cls-9" d="M138.65,276.32c.89.47,3.65,1.16,4.12.28s-1.51-3-2.39-3.48a1.82,1.82,0,0,0-1.73,3.2Z"/><path class="cls-6" d="M123,273c-4.68-2.46,1.57-14.51,6.68-11.55S140.45,272,140.45,272h0a2.55,2.55,0,0,1,.1,3.12c-.71,1.32-1.3,1.69-2.66,1.63h0S127.7,275.43,123,273Z"/><path class="cls-26" d="M126.13,271.74c-3.26-1.71-1.21-8.07,2.05-10.78-4.7-.23-9.38,9.79-5.16,12,4.68,2.46,14.87,3.82,14.87,3.82h0a2.31,2.31,0,0,0,2.48-1.32C138.14,275.14,130.12,273.84,126.13,271.74Z"/><path class="cls-14" d="M111.43,266.89l6.4-11.88,12,6.39h0l.05,0c1.91,1,2,4.52.26,7.8s-4.75,5.11-6.66,4.08l0,0h0Z"/><path class="cls-11" d="M139.53,271.94h0s-3.4-3.39-7-6.64a9.79,9.79,0,0,1-.75,3c3.54,2.46,7,4.69,7,4.69h0c1,.64,1.42.74,1.64.45S140.24,272.62,139.53,271.94Z"/><path class="cls-27" d="M126.55,272.08l0,0h0l-12-6.39-3.11,1.23,12,6.39h0l0,0c1.15.62,2.7.19,4.13-1A2.38,2.38,0,0,1,126.55,272.08Z"/><path class="cls-28" d="M111.45,266.9c1.91,1,4.89-.79,6.66-4.07s1.65-6.78-.26-7.81-4.89.8-6.65,4.08S109.54,265.87,111.45,266.9Z"/><path class="cls-6" d="M67.76,243.43l6.4-11.88,43.76,23.58h0l0,0c1.91,1,2,4.52.26,7.8s-4.75,5.1-6.66,4.07l0,0h0Z"/><path class="cls-26" d="M114.67,265.8l0,0h0L70.87,242.2l5.18-9.63-1.89-1-6.4,11.88L111.52,267h0l0,0c1.16.62,2.7.2,4.13-.95A2.39,2.39,0,0,1,114.67,265.8Z"/><path class="cls-10" d="M67.78,243.44c1.91,1,4.89-.79,6.66-4.07s1.65-6.78-.26-7.81-4.89.8-6.66,4.08S65.87,242.41,67.78,243.44Z"/><path class="cls-6" d="M67.76,243.43Z"/><path class="cls-6" d="M67.76,243.43Z"/><path class="cls-7" d="M74.16,239.31c1.77-3.28,1.66-6.77-.25-7.8l-.14-.06a2.77,2.77,0,0,1,.63.22c1.91,1,2,4.53.26,7.81s-4.61,5-6.53,4.13C70,244,72.58,242.25,74.16,239.31Z"/><path class="cls-14" d="M60.77,238.29l5.43-10.08L73,232h0l.05,0c1.62.87,1.71,3.84.22,6.62s-4,4.33-5.65,3.46l0,0h0Z"/><path class="cls-17" d="M60.79,238.3c1.62.88,4.15-.67,5.65-3.45s1.4-5.75-.22-6.63-4.15.68-5.65,3.46S59.17,237.43,60.79,238.3Z"/><path class="cls-14" d="M66.22,228.22h0Z"/><path class="cls-14" d="M66.22,228.22h0Z"/><path class="cls-29" d="M66.22,234.73c1.37-2.53,1.4-5.21.17-6.33l.11,0c1.62.87,1.72,3.83.22,6.62s-4,4.33-5.65,3.45a1.55,1.55,0,0,1-.39-.28C62.3,239,64.75,237.46,66.22,234.73Z"/><path class="cls-30" d="M86.06,307l44.45-26.51s.37-.2.53-.27a74.72,74.72,0,0,1,10.26-4.35h0c.71-.24,1.07,0,.89.81a3.92,3.92,0,0,1-1.54,2.26h0s-6.58,5.44-10.83,8.26a4.83,4.83,0,0,1-.72.52l0,0h0L84.42,314.55Z"/><path class="cls-31" d="M116.74,290.22l19.93-11.89.24-.12a33.05,33.05,0,0,1,4.6-1.95h0c.32-.1.16,1-.3,1.38h0s-2.95,2.45-4.86,3.71a2.43,2.43,0,0,1-.32.24h0l-20,12Z"/><path class="cls-11" d="M75.54,238.13l43,22.92a7.93,7.93,0,0,0,.43-3.12L76.18,235.12A9.63,9.63,0,0,1,75.54,238.13Z"/><path class="cls-17" d="M67.3,234.18l6,3.19a7.27,7.27,0,0,0,.54-2.76,2.42,2.42,0,0,1,0-.25L68,231.25A8.44,8.44,0,0,1,67.3,234.18Z"/><path class="cls-17" d="M119.39,261.53l11,5.85a8.21,8.21,0,0,0,.5-2.88,1.52,1.52,0,0,0,0-.21L120,258.49A9.17,9.17,0,0,1,119.39,261.53Z"/><path class="cls-23" d="M230,296.56c-1.32-.77-1.32-2,0-2.76l10.85-6.26a7.37,7.37,0,0,1,6.66,0c1.84,1.06,1.85,2.79,0,3.84l-9.69,5.6a.84.84,0,0,1-.74,0c-.21-.12-.21-.31,0-.43l9.69-5.59c1.42-.83,1.41-2.17,0-3a5.76,5.76,0,0,0-5.18,0l-10.85,6.27c-.91.52-.9,1.37,0,1.9a3.65,3.65,0,0,0,3.3,0l10.39-6c.41-.24.4-.62,0-.86a1.63,1.63,0,0,0-1.49,0l-8.65,5c-.05,0-.05.07,0,.1a.17.17,0,0,0,.17,0l6.36-3.67a.81.81,0,0,1,.74,0c.2.11.21.31,0,.42l-6.36,3.68a1.84,1.84,0,0,1-1.65,0c-.45-.27-.46-.69,0-.95l8.65-5a3.3,3.3,0,0,1,3,0,.91.91,0,0,1,0,1.72l-10.39,6A5.3,5.3,0,0,1,230,296.56Z"/><path class="cls-5" d="M230,296.28c-1.32-.77-1.32-2,0-2.76l10.85-6.26a7.37,7.37,0,0,1,6.66,0c1.84,1.06,1.85,2.79,0,3.84l-9.69,5.6a.81.81,0,0,1-.74,0c-.21-.12-.21-.31,0-.43l9.69-5.59c1.42-.83,1.41-2.17,0-3a5.73,5.73,0,0,0-5.18,0L230.72,294a1,1,0,0,0,0,1.9,3.65,3.65,0,0,0,3.3,0l10.39-6c.41-.24.4-.62,0-.86a1.63,1.63,0,0,0-1.49,0l-8.65,5c-.05,0-.05.07,0,.1a.17.17,0,0,0,.17,0l6.36-3.67a.81.81,0,0,1,.74,0c.2.12.21.31,0,.42l-6.36,3.68a1.84,1.84,0,0,1-1.65,0c-.45-.27-.46-.69,0-.95l8.65-5a3.27,3.27,0,0,1,3,0,.9.9,0,0,1,0,1.71l-10.39,6A5.33,5.33,0,0,1,230,296.28Z"/><path class="cls-2" d="M244.41,288.72a1.63,1.63,0,0,0-1.49,0l-8.65,5c-.05,0-.05.07,0,.09a.17.17,0,0,0,.17,0l6.36-3.67a.66.66,0,0,1,.25-.06l1.87-1.08a1.63,1.63,0,0,1,1.49,0,.61.61,0,0,1,.27.29C244.76,289.09,244.68,288.88,244.41,288.72Z"/><path class="cls-2" d="M233.53,294.52a1.84,1.84,0,0,0,1.65,0l6.36-3.68c.17-.09.19-.23.09-.35a.31.31,0,0,1-.09.07l-6.36,3.68a1.84,1.84,0,0,1-1.65,0,.65.65,0,0,1-.29-.34A.5.5,0,0,0,233.53,294.52Z"/><path class="cls-2" d="M246.75,287.42a5.7,5.7,0,0,0-5.18,0l-10.85,6.26a1.07,1.07,0,0,0-.65,1.09,1.19,1.19,0,0,1,.65-.81l10.85-6.26a5.73,5.73,0,0,1,5.18,0,1.91,1.91,0,0,1,1.06,1.37A1.75,1.75,0,0,0,246.75,287.42Z"/><path class="cls-2" d="M247.51,290.84l-9.69,5.59a.81.81,0,0,1-.74,0,.34.34,0,0,1-.09-.08c-.1.12-.08.26.09.36a.81.81,0,0,0,.74,0l9.69-5.6a2.22,2.22,0,0,0,1.34-2.05A2.4,2.4,0,0,1,247.51,290.84Z"/><path class="cls-2" d="M245.74,289.3a1.1,1.1,0,0,1-.58.71l-10.39,6a5.33,5.33,0,0,1-4.78,0,1.76,1.76,0,0,1-1-1.25,1.62,1.62,0,0,0,1,1.53,5.33,5.33,0,0,0,4.78,0l10.39-6A1,1,0,0,0,245.74,289.3Z"/><path class="cls-23" d="M273.33,287.87c1.32-.76,1.33-2,0-2.76l-10.85-6.26a7.37,7.37,0,0,0-6.66,0c-1.84,1.07-1.85,2.79,0,3.85l9.69,5.59a.81.81,0,0,0,.74,0c.2-.12.21-.31,0-.43l-9.69-5.59c-1.42-.82-1.41-2.17,0-3a5.7,5.7,0,0,1,5.18,0l10.85,6.26a1,1,0,0,1,0,1.9,3.65,3.65,0,0,1-3.3,0l-10.39-6c-.41-.23-.41-.62,0-.86a1.63,1.63,0,0,1,1.49,0l8.65,5c.05,0,.05.07,0,.09a.17.17,0,0,1-.17,0L262.53,282a.81.81,0,0,0-.74,0c-.21.12-.21.31,0,.43l6.36,3.67a1.84,1.84,0,0,0,1.65,0,.5.5,0,0,0,0-.95l-8.65-5a3.27,3.27,0,0,0-3,0,.9.9,0,0,0,0,1.71l10.39,6A5.31,5.31,0,0,0,273.33,287.87Z"/><path class="cls-3" d="M273.33,287.53c1.32-.76,1.33-2,0-2.76l-10.85-6.26a7.37,7.37,0,0,0-6.66,0c-1.84,1.06-1.85,2.79,0,3.85l9.69,5.59a.81.81,0,0,0,.74,0c.2-.12.21-.31,0-.43l-9.69-5.59c-1.42-.82-1.41-2.17,0-3a5.7,5.7,0,0,1,5.18,0l10.85,6.26a1,1,0,0,1,0,1.9,3.65,3.65,0,0,1-3.3,0l-10.39-6c-.41-.24-.41-.62,0-.86a1.63,1.63,0,0,1,1.49,0l8.65,5c.05,0,.05.08,0,.1a.17.17,0,0,1-.17,0l-6.36-3.67a.81.81,0,0,0-.74,0c-.21.12-.21.31,0,.42l6.36,3.68a1.84,1.84,0,0,0,1.65,0c.45-.27.45-.69,0-.95l-8.65-5a3.27,3.27,0,0,0-3,0,.9.9,0,0,0,0,1.71l10.39,6A5.31,5.31,0,0,0,273.33,287.53Z"/><path class="cls-4" d="M272.61,285l-10.85-6.26a5.73,5.73,0,0,0-5.18,0,1.74,1.74,0,0,0-1.06,1.62,1.88,1.88,0,0,1,1.06-1.37,5.7,5.7,0,0,1,5.18,0l10.85,6.26a1.21,1.21,0,0,1,.66.82A1.08,1.08,0,0,0,272.61,285Z"/><path class="cls-4" d="M258.92,280.25a1.63,1.63,0,0,1,1.49,0l2,1.13.16,0,6.36,3.67a.17.17,0,0,0,.17,0c.05,0,.05-.07,0-.09l-8.65-5a1.63,1.63,0,0,0-1.49,0,.45.45,0,0,0-.27.56A.6.6,0,0,1,258.92,280.25Z"/><path class="cls-4" d="M269.8,285.52a1.84,1.84,0,0,1-1.65,0l-6.36-3.67a.3.3,0,0,1-.1-.09c-.09.11-.06.24.1.33l6.36,3.68a1.84,1.84,0,0,0,1.65,0c.28-.17.37-.39.3-.6A.65.65,0,0,1,269.8,285.52Z"/><path class="cls-4" d="M266.35,287.62a.3.3,0,0,1-.1.09.81.81,0,0,1-.74,0l-9.69-5.59a2.37,2.37,0,0,1-1.34-1.79,2.23,2.23,0,0,0,1.34,2l9.69,5.59a.81.81,0,0,0,.74,0C266.41,287.87,266.44,287.73,266.35,287.62Z"/><path class="cls-4" d="M273.33,287.28a5.27,5.27,0,0,1-4.77,0l-10.39-6a1.1,1.1,0,0,1-.59-.73,1,1,0,0,0,.59,1l10.39,6a5.31,5.31,0,0,0,4.77,0,1.61,1.61,0,0,0,1-1.51A1.74,1.74,0,0,1,273.33,287.28Z"/><path class="cls-23" d="M279,290.59c-1.72.26-3.68-.26-4.37-1.17l-5.7-7.54c-1-1.27.21-2.61,2.6-3s5.13.37,6.09,1.64l5.1,6.73c.1.14,0,.29-.29.33a.8.8,0,0,1-.68-.18l-5.09-6.73c-.75-1-2.87-1.56-4.74-1.27s-2.77,1.32-2,2.31l5.69,7.54a3.51,3.51,0,0,0,3,.81c1.19-.19,1.77-.85,1.29-1.48l-5.46-7.21a1.56,1.56,0,0,0-1.36-.37c-.54.08-.8.38-.58.67l4.54,6a.2.2,0,0,0,.16,0c.06,0,.09,0,.06-.07L274,283.24c-.11-.14,0-.29.29-.33a.78.78,0,0,1,.67.18l3.35,4.43c.24.31,0,.64-.65.73a1.76,1.76,0,0,1-1.5-.4l-4.55-6c-.43-.57.09-1.17,1.16-1.33a3.13,3.13,0,0,1,2.72.73l5.45,7.21C281.59,289.37,280.76,290.32,279,290.59Z"/><path class="cls-5" d="M279,290.25c-1.72.26-3.68-.26-4.37-1.17l-5.7-7.54c-1-1.27.21-2.61,2.6-3s5.13.37,6.09,1.64l5.1,6.73c.1.14,0,.29-.29.33a.8.8,0,0,1-.68-.18l-5.09-6.73c-.75-1-2.87-1.56-4.74-1.28s-2.77,1.33-2,2.32l5.69,7.54a3.51,3.51,0,0,0,3,.81c1.19-.19,1.77-.85,1.29-1.48l-5.46-7.21a1.56,1.56,0,0,0-1.36-.37c-.54.08-.8.38-.58.67l4.54,6a.2.2,0,0,0,.16,0c.06,0,.09,0,.06-.08L274,282.9c-.11-.14,0-.29.29-.33a.78.78,0,0,1,.67.18l3.35,4.43c.24.31,0,.64-.65.73a1.76,1.76,0,0,1-1.5-.4l-4.55-6c-.43-.56.09-1.16,1.16-1.32a3.13,3.13,0,0,1,2.72.73l5.45,7.21C281.59,289,280.76,290,279,290.25Z"/><path class="cls-2" d="M274,282.66c-.08.07-.12.16-.05.24l3.15,4.16a.18.18,0,0,0,.13,0c.06,0,.09,0,.06-.08Z"/><path class="cls-2" d="M279.94,288l-5.46-7.21a1.56,1.56,0,0,0-1.36-.37c-.51.08-.76.35-.6.62a.85.85,0,0,1,.6-.31,1.56,1.56,0,0,1,1.36.37l5.46,7.21a1,1,0,0,1,.14.29A.69.69,0,0,0,279.94,288Z"/><path class="cls-2" d="M282.7,286.86a.61.61,0,0,1-.23.09.8.8,0,0,1-.68-.18L276.7,280c-.75-1-2.87-1.56-4.74-1.28-1.52.24-2.38,1-2.26,1.77.12-.67.94-1.25,2.26-1.46,1.87-.28,4,.29,4.74,1.28l5.09,6.73a.8.8,0,0,0,.68.18c.26,0,.39-.19.29-.33Z"/><path class="cls-2" d="M271.57,281.49l4.55,6a1.76,1.76,0,0,0,1.5.4c.56-.08.83-.38.67-.67a.86.86,0,0,1-.67.36,1.76,1.76,0,0,1-1.5-.4l-4.55-6a.9.9,0,0,1-.12-.24A.59.59,0,0,0,271.57,281.49Z"/><path class="cls-2" d="M279,289.94c-1.72.26-3.68-.26-4.37-1.17l-5.7-7.54a1.43,1.43,0,0,1-.3-.76,1.4,1.4,0,0,0,.3,1.07l5.7,7.54c.69.91,2.65,1.43,4.37,1.17,1.4-.22,2.2-.9,2.08-1.64C281,289.22,280.24,289.75,279,289.94Z"/></g></g></g></svg>